<svg xmlns="http://www.w3.org/2000/svg" width="960" height="540" viewBox="0 0 960 540">
  <rect width="960" height="540" fill="#f5f7f8"/>
  <rect width="220" height="540" fill="#fff" stroke="#d8dee4"/>
  <text x="28" y="40" font-family="Arial" font-size="16" font-weight="700" fill="#172026">ATHENA</text>
  <rect x="16" y="88" width="188" height="36" rx="6" fill="#0f766e"/>
  <text x="54" y="111" font-family="Arial" font-size="13" fill="#fff">Chat</text>
  <rect x="244" y="76" width="456" height="398" rx="8" fill="#fff" stroke="#d8dee4"/>
  <text x="268" y="108" font-family="Arial" font-size="14" font-weight="700" fill="#172026">Engineering Chat</text>
  <rect x="424" y="150" width="244" height="46" rx="6" fill="#172026"/>
  <text x="444" y="178" font-family="Arial" font-size="13" fill="#fff">How do we recover ingestion?</text>
  <rect x="268" y="220" width="352" height="94" rx="6" fill="#f1f5f9"/>
  <text x="288" y="250" font-family="Arial" font-size="13" fill="#172026">Based on the strongest retrieved source...</text>
  <rect x="268" y="418" width="360" height="34" rx="6" fill="#fff" stroke="#d8dee4"/>
  <rect x="638" y="418" width="46" height="34" rx="6" fill="#0f766e"/>
  <rect x="724" y="76" width="196" height="398" rx="8" fill="#fff" stroke="#d8dee4"/>
  <text x="744" y="108" font-family="Arial" font-size="14" font-weight="700" fill="#172026">Latest Citations</text>
  <rect x="744" y="132" width="156" height="58" rx="6" fill="#fff" stroke="#d8dee4"/>
  <text x="758" y="160" font-family="Arial" font-size="12" fill="#172026">Market Data Runbook</text>
</svg>

